<svg width="400" height="800" viewBox="0 0 90.667 180.785" xmlns="http://www.w3.org/2000/svg">
    <g fill="#fff">
        <path d="m31.895 12.542 8.277 6.292-2.226 3.895h17.129l9.64 16.781-9.64 16.777H35.79L26.145 39.51l11.52-20.07-8.312-6.484-15.5 26.976L29.591 67.32h31.484l15.738-27.388-15.738-27.39Z"></path>
        <path d="M37.524 78.479v13.066h15.617V78.479h-.004l-3.902 10.996-3.899-10.996h-.003l-3.902 10.996-3.902-10.996Z"></path>
        <path d="m45.333 100.924-7.176 15.07 2.801-2.746 4.375-1.426 4.375 1.426 2.8 2.746z"></path>
        <path d="M40.044 125.702v7.54l10.578-7.54Zm0 7.54v7.538h10.578zm.215.491 9.523 6.79h-9.523z"></path>
        <path d="m37.778 151.662 7.164 6.281v10.301h.781v-10.3l7.164-6.282z"></path>
    </g>
</svg>
